<svg xmlns="http://www.w3.org/2000/svg" viewBox="0 0 360 150">
  <text x="180" y="18" text-anchor="middle" class="fig-titulo">Sucesion aritmetica: los saltos son iguales</text>

  <defs>
    <marker id="punta-flecha" viewBox="0 0 10 10" refX="9" refY="5" markerWidth="6" markerHeight="6" orient="auto-start-reverse">
      <path d="M 0 0 L 10 5 L 0 10 z" fill="#93c5fd"/>
    </marker>
    <marker id="punta-ok" viewBox="0 0 10 10" refX="9" refY="5" markerWidth="6" markerHeight="6" orient="auto-start-reverse">
      <path d="M 0 0 L 10 5 L 0 10 z" fill="#34d399"/>
    </marker>
  </defs>

  <rect x="16" y="40" width="56" height="34" rx="9" class="fig-destac"/>
  <text x="44" y="62" text-anchor="middle" class="fig-destac-txt" font-size="13">5</text>

  <rect x="104" y="40" width="56" height="34" rx="9" class="fig-ok"/>
  <text x="132" y="62" text-anchor="middle" class="fig-ok-txt" font-size="13">9</text>

  <rect x="192" y="40" width="56" height="34" rx="9" class="fig-ok"/>
  <text x="220" y="62" text-anchor="middle" class="fig-ok-txt" font-size="13">13</text>

  <rect x="280" y="40" width="56" height="34" rx="9" class="fig-apoyo"/>
  <text x="308" y="62" text-anchor="middle" class="fig-apoyo-txt" font-size="13">17</text>

  <line x1="74" y1="57" x2="100" y2="57" class="fig-flecha-ok"/>
  <line x1="162" y1="57" x2="188" y2="57" class="fig-flecha-ok"/>
  <line x1="250" y1="57" x2="276" y2="57" class="fig-flecha-ok"/>

  <text x="87" y="92" text-anchor="middle" class="fig-ok-txt" font-size="12">d = 4</text>
  <text x="175" y="92" text-anchor="middle" class="fig-ok-txt" font-size="12">d = 4</text>
  <text x="263" y="92" text-anchor="middle" class="fig-ok-txt" font-size="12">d = 4</text>

  <line x1="16" y1="108" x2="336" y2="108" class="fig-medida"/>

  <text x="180" y="128" text-anchor="middle" class="fig-nota" font-size="12">Si d fuera distinta en algun salto, la sucesion ya no seria aritmetica.</text>
</svg>
